<?xml version="1.0" standalone="no"?>
<!DOCTYPE svg PUBLIC "-//W3C//DTD SVG 1.1//EN" "http://www.w3.org/Graphics/SVG/1.1/DTD/svg11.dtd" >
<svg xmlns="http://www.w3.org/2000/svg">
<metadata></metadata>
<defs>
<font id="bemio_italicregular" horiz-adv-x="1474" >
<font-face units-per-em="2048" ascent="1536" descent="-512" />
<missing-glyph horiz-adv-x="466" />
<glyph unicode="&#xfb01;" horiz-adv-x="1550" d="M-55 -385l41 299q28 -4 45 -4q28 0 46.5 3.5t40 14.5t35 37t19.5 66l98 696h-110l51 358h111q9 90 40.5 162.5t80.5 121.5t107.5 83.5t130 53t139.5 26.5t143 8q250 0 419 -65l-82 -310q-125 41 -239 41q-45 0 -78 -3.5t-71 -15t-63 -37.5t-34 -65h739l-100 -712 q-7 -48 27 -62.5t88 0.5l-43 -299q-115 -39 -287 -39q-164 0 -238.5 87t-56.5 219l62 448h-240l-98 -696q-15 -105 -50.5 -186t-81 -131t-105.5 -82t-118 -44t-123 -12q-142 0 -245 39z" />
<glyph unicode="&#xfb02;" horiz-adv-x="1587" d="M-55 -385l41 299q28 -4 45 -4q28 0 46.5 3.5t40 14.5t35 37t19.5 66l98 696h-110l51 358h111q19 111 67.5 194t111.5 132t149 79t168 40t181 10q78 0 145.5 -8.5t137 -27.5t121.5 -55t91 -87t53 -127.5t1 -171.5l-88 -635q-6 -40 0 -66t24 -37t35.5 -14.5t45.5 -3.5 q21 0 49 4l-43 -299q-115 -39 -260 -39q-53 0 -99.5 8.5t-92 29t-77 54.5t-55.5 84.5t-28 119.5t6 159l92 657q7 50 -18 85.5t-81 35.5q-116 0 -143 -121h166l-51 -358h-164l-98 -696q-15 -105 -50.5 -186t-81 -131t-105.5 -82t-118 -44t-123 -12q-142 0 -245 39z" />
<glyph unicode="&#xfb03;" horiz-adv-x="2281" d="M-55 -385l41 299q28 -4 45 -4q28 0 46.5 3.5t40 14.5t35 37t19.5 66l98 696h-110l51 358h111q15 93 42.5 165.5t65 119t78.5 77.5t92 46t96.5 21t100.5 6q231 0 432 -105q165 125 469 125q251 0 420 -65l-82 -310q-125 41 -240 41q-45 0 -78 -3.5t-71 -15t-63 -37.5 t-34 -65h740l-101 -712q-7 -48 27 -62.5t88 0.5l-43 -299q-115 -39 -287 -39q-164 0 -238.5 87t-56.5 219l62 448h-240l-88 -623q-15 -105 -50 -186t-81 -130.5t-105.5 -81.5t-117.5 -44t-123 -12q-143 0 -246 39l41 299q28 -4 45 -4q28 0 46.5 3t40.5 14t35.5 37t19.5 66 l88 623h-240l-98 -696q-15 -105 -50.5 -186t-81 -131t-105.5 -82t-118 -44t-123 -12q-142 0 -245 39zM815 1085h242q2 33 14 82q-70 19 -119 19q-26 0 -44.5 -3t-39 -12.5t-34 -31t-19.5 -54.5z" />
<glyph unicode="&#xfb04;" horiz-adv-x="2328" d="M-55 -385l41 299q28 -4 45 -4q28 0 46.5 3.5t40 14.5t35 37t19.5 66l98 696h-110l51 358h111q15 93 42.5 165.5t65 119t78.5 77.5t92 46t96.5 21t100.5 6q226 0 434 -105q180 125 504 125q78 0 145.5 -8.5t137 -27.5t121.5 -55t91 -87t53 -127.5t1 -171.5l-89 -635 q-6 -40 0 -66t24 -37t35.5 -14.5t45.5 -3.5q21 0 49 4l-43 -299q-115 -39 -260 -39q-53 0 -99.5 8.5t-92 29t-77 54.5t-55.5 84.5t-28 119.5t6 159l92 657q7 50 -17.5 85.5t-80.5 35.5q-117 0 -144 -121h166l-51 -358h-164l-86 -623q-15 -105 -50 -186t-81 -130.5 t-105.5 -81.5t-117.5 -44t-123 -12q-143 0 -246 39l41 299q28 -4 45 -4q28 0 46.5 3t40.5 14t35.5 37t19.5 66l86 623h-240l-98 -696q-15 -105 -50.5 -186t-81 -131t-105.5 -82t-118 -44t-123 -12q-142 0 -245 39zM815 1085h242q0 39 10 84q-79 17 -115 17q-26 0 -44.5 -3 t-39 -12.5t-34 -31t-19.5 -54.5z" />
<glyph horiz-adv-x="2048" />
<glyph horiz-adv-x="2048" />
<glyph unicode="&#xd;" horiz-adv-x="2048" />
<glyph unicode=" "  horiz-adv-x="466" />
<glyph unicode="&#x09;" horiz-adv-x="466" />
<glyph unicode="&#xa0;" horiz-adv-x="466" />
<glyph unicode="!" horiz-adv-x="671" d="M106 0l58 410h457l-58 -410h-457zM244 516l12 643l31 225h487l-31 -225l-172 -643h-327z" />
<glyph unicode="&#x22;" horiz-adv-x="999" d="M213 750l51 495l21 139h333l-20 -139l-88 -495h-297zM700 750l50 495l20 139h336l-21 -139l-90 -495h-295z" />
<glyph unicode="#" horiz-adv-x="1290" d="M90 248l35 250h227l54 200h-183l35 250h213l66 248h268l-68 -248h168l66 248h266l-66 -248h197l-35 -250h-227l-53 -200h182l-35 -250h-213l-67 -248h-267l66 248h-166l-68 -248h-266l68 248h-197zM618 498h168l54 200h-168z" />
<glyph unicode="$" horiz-adv-x="1228" d="M72 76q33 95 129 370q214 -110 403 -110q144 0 144 63q0 28 -24 48t-63.5 31t-90 25t-102.5 27.5t-102.5 41.5t-90 64.5t-63.5 98.5t-24 142q0 144 73 261.5t195.5 186t272.5 82.5l29 192h194l-28 -192q191 -11 385 -74l-125 -356q-70 32 -170 55t-199 23 q-68 0 -102.5 -14.5t-34.5 -49.5q0 -33 31.5 -55t81.5 -36t111 -29.5t121.5 -42.5t110.5 -66t81.5 -109t31.5 -164q0 -209 -143 -346.5t-379 -160.5l-45 -312h-195l43 305q-252 8 -456 101z" />
<glyph unicode="%" horiz-adv-x="1665" d="M193 975q0 190 100.5 313t277.5 123q137 0 208 -82.5t71 -222.5q0 -190 -101.5 -313t-281.5 -123q-134 0 -204 82.5t-70 222.5zM291 -20l1055 1425h225l-1057 -1425h-223zM428 991q0 -58 17.5 -91.5t50.5 -33.5q53 0 85.5 63.5t32.5 157.5q0 59 -18 93t-51 34 q-52 0 -84.5 -64t-32.5 -159zM1012 279q0 190 101.5 313t281.5 123q134 0 204 -82.5t70 -222.5q0 -190 -101 -313.5t-278 -123.5q-137 0 -207.5 83t-70.5 223zM1247 297q0 -59 18.5 -93t51.5 -34q52 0 84.5 64t32.5 159q0 58 -17.5 91.5t-50.5 33.5q-53 0 -86 -63.5 t-33 -157.5z" />
<glyph unicode="&#x26;" horiz-adv-x="1380" d="M104 324q0 137 89 245.5t219 141.5q-174 89 -174 278q0 133 81 229.5t221.5 144.5t325.5 48q223 0 445 -80l-109 -366q-59 25 -151 44t-179 19q-176 0 -176 -86q0 -38 37.5 -53t106.5 -15h34l-49 -348h-59q-156 0 -156 -90q0 -80 123 -80q85 0 131 39t54 99l53 380h499 l-49 -348h-106l-2 -16q-11 -88 -37.5 -163.5t-78.5 -145.5t-124.5 -119.5t-181.5 -79t-244 -29.5q-85 0 -161 11t-147 37.5t-122.5 65.5t-82 100t-30.5 137z" />
<glyph unicode="'" horiz-adv-x="514" d="M213 750l51 495l21 139h333l-20 -139l-88 -495h-297z" />
<glyph unicode="(" horiz-adv-x="716" d="M106 336q0 299 97 557t329 573h396q-443 -518 -443 -1124q0 -199 45.5 -394t133.5 -349h-396q-162 357 -162 737z" />
<glyph unicode=")" horiz-adv-x="716" d="M-63 -401q444 515 444 1122q0 200 -46 395.5t-136 349.5h397q164 -364 164 -739q0 -299 -97.5 -555.5t-328.5 -572.5h-397z" />
<glyph unicode="*" horiz-adv-x="974" d="M193 963l106 239l70 -24l176 -91l6 218l12 79h238l-13 -79l-51 -215l201 90l76 24l39 -239l-74 -25l-211 -45l119 -160l37 -65l-215 -148l-35 64l-78 190l-129 -190l-51 -64l-174 148l53 63l162 162l-197 43z" />
<glyph unicode="+" horiz-adv-x="1114" d="M109 362l45 318h346l51 362h309l-51 -362h346l-45 -318h-346l-51 -362h-310l52 362h-346z" />
<glyph unicode="," horiz-adv-x="641" d="M59 -305l224 305h-189l58 410h456l-53 -373l-268 -342h-228z" />
<glyph unicode="-" horiz-adv-x="829" d="M147 375l46 317h641l-46 -317h-641z" />
<glyph unicode="." horiz-adv-x="643" d="M94 0l58 410h456l-57 -410h-457z" />
<glyph unicode="/" horiz-adv-x="1048" d="M39 -57l840 1472h323l-842 -1472h-321z" />
<glyph unicode="0" horiz-adv-x="1339" d="M145 571q0 135 27.5 258t85.5 229.5t141 184.5t200.5 123t258.5 45q268 0 397 -155t129 -441q0 -135 -27.5 -258.5t-85.5 -230.5t-141 -185t-200.5 -123t-257.5 -45q-268 0 -397.5 156t-129.5 442zM645 559q0 -106 16 -155.5t58 -49.5q70 0 119 121.5t49 347.5 q0 106 -16 156.5t-58 50.5q-70 0 -119 -121.5t-49 -349.5z" />
<glyph unicode="1" horiz-adv-x="950" d="M135 786l43 301q386 0 443 297h409l-194 -1384h-494l111 786h-318z" />
<glyph unicode="2" horiz-adv-x="1273" d="M72 0l55 395q73 44 173.5 102t164.5 94t136 82.5t112.5 82t68 76.5t27.5 81q0 49 -40.5 67.5t-129.5 18.5q-147 0 -371 -90l-14 389q108 42 274.5 77.5t292.5 35.5q90 0 162 -10t138.5 -36t111 -67t70.5 -106.5t26 -151.5q0 -83 -24 -157t-61.5 -131.5t-103.5 -119.5 t-128 -108.5t-158 -111.5h401l-57 -412h-1126z" />
<glyph unicode="3" horiz-adv-x="1241" d="M49 53l107 400q179 -84 379 -84q208 0 208 86q0 67 -135 67h-260l51 357h222q155 0 155 73q0 66 -145 66q-90 0 -186 -20t-162 -46l-4 377q242 82 481 82q242 0 378 -87t136 -259q0 -128 -72.5 -216t-187.5 -138q98 -27 165.5 -109t67.5 -207q0 -89 -38.5 -161 t-104.5 -120t-156 -80t-189.5 -46.5t-209.5 -14.5q-281 0 -500 80z" />
<glyph unicode="4" horiz-adv-x="1337" d="M70 248l55 387l625 749h581l-106 -757h127l-54 -379h-127l-34 -248h-457l35 248h-645zM526 616h248l51 357z" />
<glyph unicode="5" horiz-adv-x="1220" d="M57 51l105 385q171 -82 327 -82q95 0 152 30.5t57 86.5q0 53 -48.5 76.5t-123.5 23.5q-65 0 -170 -18l-172 147l191 684h934l-54 -387h-505l-33 -114q58 4 88 4q87 0 161.5 -21.5t135.5 -67t96 -124.5t35 -185q0 -111 -39 -199.5t-104.5 -147t-155.5 -97.5t-187 -55.5 t-204 -16.5q-245 0 -486 78z" />
<glyph unicode="6" horiz-adv-x="1296" d="M143 547q0 198 62.5 363t168.5 273.5t243.5 168t289.5 59.5q262 0 453 -104l-117 -326q-51 24 -131 41.5t-166 17.5q-105 0 -179.5 -50t-102.5 -161q146 86 294 86q181 0 272 -103.5t91 -274.5q0 -124 -45.5 -227.5t-130 -178.5t-212 -116.5t-284.5 -41.5 q-251 0 -378.5 151t-127.5 423zM639 428q0 -45 18.5 -74.5t57.5 -29.5q56 0 84 50t28 118q0 104 -73 104q-56 0 -85.5 -50.5t-29.5 -117.5z" />
<glyph unicode="7" horiz-adv-x="1153" d="M168 958l59 426h1100l-51 -370q-133 -147 -231 -290.5t-177.5 -331t-115.5 -392.5h-512q38 231 163 465.5t320 492.5h-555z" />
<glyph unicode="8" horiz-adv-x="1296" d="M102 303q0 304 320 404q-178 68 -178 272q0 217 158 324.5t444 107.5q238 0 365.5 -80t127.5 -241q0 -152 -67.5 -245t-200.5 -138q221 -76 221 -293q0 -105 -32.5 -183.5t-87.5 -127.5t-140 -78.5t-177.5 -40.5t-211.5 -11q-81 0 -147.5 6t-129.5 20t-109.5 38.5 t-82.5 60.5t-54 87.5t-18 117.5zM606 371q0 -111 78 -111q60 0 90.5 53t30.5 144q0 114 -78 114q-36 0 -61 -18t-37.5 -49.5t-17.5 -63.5t-5 -69zM707 973q0 -47 16.5 -75t44.5 -28q43 0 71.5 46.5t28.5 119.5q0 99 -61 99q-49 0 -74.5 -49t-25.5 -113z" />
<glyph unicode="9" horiz-adv-x="1308" d="M113 78l120 352q64 -32 153.5 -54t180.5 -22q125 0 187.5 45t87.5 133q-115 -63 -267 -63q-200 0 -296.5 106.5t-96.5 280.5q0 164 82.5 291t229 195.5t333.5 68.5q533 0 533 -584q0 -146 -32.5 -275t-97.5 -235t-157.5 -183t-217 -119t-271.5 -42q-124 0 -253 28 t-218 77zM672 891q0 -109 82 -109q57 0 85.5 50.5t28.5 115.5q0 49 -19.5 80t-62.5 31q-56 0 -85 -52t-29 -116z" />
<glyph unicode=":" horiz-adv-x="679" d="M111 0l57 410h457l-58 -410h-456zM205 676l57 409h457l-57 -409h-457z" />
<glyph unicode=";" horiz-adv-x="677" d="M78 -305l221 305h-188l57 410h457l-54 -373l-266 -342h-227zM205 676l57 409h457l-57 -409h-457z" />
<glyph unicode="&#x3c;" horiz-adv-x="1081" d="M104 354l48 336l987 383l-47 -346l-592 -205l532 -205l-47 -346z" />
<glyph unicode="=" horiz-adv-x="1196" d="M113 117l45 317h1003l-45 -317h-1003zM182 610l45 318h1004l-45 -318h-1004z" />
<glyph unicode="&#x3e;" horiz-adv-x="1081" d="M90 -29l49 346l590 205l-532 205l49 346l878 -383l-47 -336z" />
<glyph unicode="?" horiz-adv-x="1009" d="M233 1327q217 84 449 84q426 0 426 -287q0 -78 -32 -147.5t-79 -120.5t-94.5 -97.5t-85.5 -98t-45 -101.5l-6 -43h-389l10 70q7 47 34.5 93t61.5 83t67.5 73t56 76.5t22.5 79.5q0 36 -23.5 52t-83.5 16q-119 0 -272 -58zM276 0l58 410h457l-58 -410h-457z" />
<glyph unicode="@" horiz-adv-x="1501" d="M133 426q0 138 48.5 269.5t134 235.5t194.5 183.5t236 122.5t253 43q248 0 397.5 -159.5t149.5 -413.5q0 -107 -28 -199.5t-73.5 -156.5t-104.5 -110.5t-120.5 -68.5t-121.5 -22q-151 0 -170 149q-116 -149 -283 -149q-121 0 -187.5 81t-66.5 209q0 130 67.5 249.5 t177 192t226.5 72.5q78 0 134 -34.5t83 -94.5l86 99h164l-149 -467q-7 -23 -10 -45t-0.5 -45.5t18 -37.5t43.5 -14q84 0 151.5 107t67.5 278q0 228 -127 357t-338 129q-192 0 -367 -103t-283 -277.5t-108 -371.5q0 -227 139.5 -373.5t356.5 -146.5q183 0 350 104l39 -75 q-200 -121 -405 -121q-170 0 -302 80.5t-202 217.5t-70 306zM635 481q0 -65 32 -102t89 -37q89 0 165 79.5t76 196.5q0 140 -118 140q-98 0 -171 -86t-73 -191z" />
<glyph unicode="A" d="M-25 0l654 1384h604l266 -1384h-508l-26 231h-390l-90 -231h-510zM705 555h221l-52 426z" />
<glyph unicode="B" horiz-adv-x="1392" d="M113 2l192 1374q265 35 463 35q104 0 193.5 -9.5t178.5 -35t151.5 -66t101.5 -106.5t39 -152q0 -124 -63 -209t-161 -131q31 -7 64 -26.5t65.5 -51.5t53 -83.5t20.5 -112.5q0 -91 -30.5 -163.5t-89 -121.5t-132.5 -83t-172.5 -52.5t-197.5 -26.5t-218 -8q-238 0 -458 29z M641 326q12 -2 86 -2q36 0 70 6t68 20.5t54.5 44t20.5 70.5q0 110 -182 110q-46 0 -82 -4zM715 842q14 -2 69 -2q35 0 64.5 5.5t59 19t46.5 42t17 68.5q0 53 -43 75.5t-103 22.5q-44 0 -80 -4z" />
<glyph unicode="C" horiz-adv-x="1294" d="M143 604q0 142 40.5 267.5t115.5 223.5t178 169.5t233 109t275 37.5q223 0 457 -86l-152 -367q-106 52 -243 52q-178 0 -281.5 -98.5t-103.5 -254.5q0 -136 81 -206t228 -70q140 0 260 51l45 -373q-258 -86 -479 -86q-303 0 -478.5 164t-175.5 467z" />
<glyph unicode="D" horiz-adv-x="1521" d="M113 2l192 1374q224 35 512 35q347 0 551.5 -166t204.5 -463q0 -144 -36.5 -263.5t-96 -201.5t-144.5 -145t-174 -100t-193.5 -60t-193 -31t-182.5 -8q-184 0 -440 29zM670 367q16 -2 59 -2q85 0 150 33t104 90.5t58.5 129t19.5 154.5q0 124 -60 192t-176 68 q-45 0 -61 -2z" />
<glyph unicode="E" horiz-adv-x="1280" d="M113 0l194 1384h1086l-56 -389h-592l-16 -121h518l-51 -360h-518l-16 -127h591l-55 -387h-1085z" />
<glyph unicode="F" horiz-adv-x="1189" d="M113 0l194 1384h1032l-55 -393h-530l-25 -170h463l-57 -407h-463l-58 -414h-501z" />
<glyph unicode="G" horiz-adv-x="1419" d="M141 596q0 180 66 332t185 258.5t288.5 165.5t370.5 59q212 0 430 -65l-121 -381q-145 49 -289 49q-112 0 -194 -29t-128.5 -80.5t-68 -113.5t-21.5 -136q0 -75 21 -132t57.5 -89t79.5 -47.5t92 -15.5q21 0 49 4l56 393h440l-96 -690q-109 -49 -253 -77t-282 -28 q-327 0 -504.5 162.5t-177.5 460.5z" />
<glyph unicode="H" horiz-adv-x="1560" d="M113 0l194 1384h504l-70 -497h328l70 497h503l-194 -1384h-504l72 514h-328l-72 -514h-503z" />
<glyph unicode="I" horiz-adv-x="733" d="M113 0l194 1384h508l-194 -1384h-508z" />
<glyph unicode="J" horiz-adv-x="1030" d="M23 49l137 363q71 -23 131 -23q46 0 78.5 6t62 22t47.5 48t25 80l61 440h-235l57 399h739l-114 -811q-83 -600 -652 -600q-199 0 -337 76z" />
<glyph unicode="K" horiz-adv-x="1458" d="M113 0l194 1384h508l-74 -518q288 193 330 518h500q-26 -187 -141 -362t-310 -295q25 -63 51 -115t47 -90t46 -67t42 -47t42.5 -31t38 -19t38.5 -9t35.5 -3h36.5l-45 -332q-132 -41 -278 -41q-109 0 -185 48t-144 159.5t-153 325.5l-71 -506h-508z" />
<glyph unicode="L" horiz-adv-x="1138" d="M113 0l194 1384h508l-139 -995h498l-56 -389h-1005z" />
<glyph unicode="M" horiz-adv-x="1710" d="M113 0l194 1384h510l168 -452l297 452h510l-195 -1384h-473l99 707l-326 -443h-12l-201 443l-98 -707h-473z" />
<glyph unicode="N" horiz-adv-x="1583" d="M113 0l194 1384h506l289 -706l98 706h465l-195 -1384h-479l-313 711l-100 -711h-465z" />
<glyph unicode="O" horiz-adv-x="1593" d="M141 600q0 179 64.5 331t177.5 257t270 164t338 59q306 0 481 -164t175 -463q0 -179 -64.5 -331t-177.5 -257t-270 -164t-338 -59q-306 0 -481 164t-175 463zM653 631q0 -260 197 -260q136 0 210.5 107.5t74.5 277.5q0 129 -48 193.5t-149 64.5q-136 0 -210.5 -107.5 t-74.5 -275.5z" />
<glyph unicode="P" horiz-adv-x="1382" d="M113 0l194 1378q212 33 477 33q103 0 197 -13.5t187.5 -47.5t161.5 -86t110.5 -135.5t42.5 -190.5q0 -132 -51 -238.5t-134 -173.5t-191.5 -109.5t-221.5 -56.5q-66 -8 -132 -8l-94 4l-49 -356h-497zM709 727q16 -1 31 -1q24 0 48 2q40 4 87.5 19t77.5 52.5t30 93.5 q0 35 -17.5 61.5t-44 39.5t-58.5 21q-28 7 -55 7h-6q-29 -1 -52 -2z" />
<glyph unicode="Q" horiz-adv-x="1595" d="M141 600q0 179 64.5 331t177.5 257t270 164t338 59q306 0 481 -164t175 -463q0 -296 -167.5 -505.5t-443.5 -276.5q52 -22 157 -76.5t177.5 -82t134.5 -27.5q41 0 88 22.5t84 57.5l-37 -285q-109 -150 -303 -150q-73 0 -151.5 31t-145.5 74.5t-130 87.5t-127 75t-115 31 q-92 0 -170 -75l-136 143q75 119 181 180q-192 59 -297 210.5t-105 381.5zM653 631q0 -260 197 -260q136 0 210.5 107.5t74.5 277.5q0 129 -48 193.5t-149 64.5q-136 0 -210.5 -107.5t-74.5 -275.5z" />
<glyph unicode="R" d="M113 0l192 1370q92 16 240 28.5t272 12.5q112 0 206.5 -11.5t185.5 -40.5t154 -75.5t101.5 -121t38.5 -171.5q0 -102 -28 -183t-80.5 -137.5t-115.5 -94.5t-146 -66q23 -35 47 -61.5t44.5 -44t46 -29.5t42 -18t42.5 -9t38 -3t37.5 0.5t33.5 0.5l-45 -332 q-132 -41 -278 -41q-149 0 -245 97t-208 364q-8 -2 -24 -2l-62 -432h-489zM707 758q12 -2 43 -2t60.5 3t65.5 13.5t62.5 27t44.5 46.5t18 69q0 36 -19 61.5t-50 38t-63 18t-66 5.5q-30 0 -58 -4z" />
<glyph unicode="S" horiz-adv-x="1234" d="M76 78l133 385q200 -113 401 -113q133 0 133 47q0 20 -23.5 34t-62 22t-88 20.5t-100.5 26.5t-100.5 44t-88 69.5t-62 105.5t-23.5 151q0 240 176 390.5t471 150.5q236 0 479 -80l-133 -383q-65 33 -167 57.5t-202 24.5q-125 0 -125 -47q0 -21 24 -36t63.5 -23.5 t90 -21.5t103 -28.5t103 -46.5t90 -72.5t63.5 -110t24 -155.5q0 -247 -179 -381.5t-490 -134.5q-278 0 -510 105z" />
<glyph unicode="T" horiz-adv-x="1294" d="M158 989l55 395h1255l-55 -395h-373l-139 -989h-508l139 989h-374z" />
<glyph unicode="U" horiz-adv-x="1468" d="M176 547l117 837h508l-117 -831q-4 -33 -4 -61q0 -14 1 -27q3 -38 29.5 -61t77.5 -23q75 0 107.5 44.5t44.5 127.5l117 831h508l-117 -837q-40 -289 -225.5 -431.5t-491.5 -142.5q-307 1 -451 143q-113 112 -113 313q0 55 9 118z" />
<glyph unicode="V" horiz-adv-x="1458" d="M182 1384h518l93 -919l354 919h518l-592 -1384h-692z" />
<glyph unicode="W" horiz-adv-x="2146" d="M201 1384h501v-942l330 942h465l66 -942l268 942h504l-488 -1384h-620l-47 778l-267 -778h-614z" />
<glyph unicode="X" horiz-adv-x="1449" d="M-10 0l485 717l-268 667h524l131 -389l242 389h528l-463 -667l289 -717h-526l-150 422l-266 -422h-526z" />
<glyph unicode="Y" horiz-adv-x="1390" d="M160 1384h514l143 -499l291 499h510l-598 -890l-70 -494h-508l70 494z" />
<glyph unicode="Z" horiz-adv-x="1284" d="M63 0l46 317l649 676h-525l56 391h1100l-54 -380l-579 -613h506l-56 -391h-1143z" />
<glyph unicode="[" horiz-adv-x="745" d="M45 -399l262 1865h606l-36 -262h-273l-188 -1337h272l-37 -266h-606z" />
<glyph unicode="\" horiz-adv-x="1048" d="M244 1415h323l426 -1472h-321z" />
<glyph unicode="]" horiz-adv-x="745" d="M-16 -399l36 266h273l188 1337h-272l37 262h604l-262 -1865h-604z" />
<glyph unicode="^" horiz-adv-x="1122" d="M162 668l405 716h371l205 -716h-336l-94 417l-213 -417h-338z" />
<glyph unicode="_" horiz-adv-x="1425" d="M199 -254l24 178h959l-25 -178h-958z" />
<glyph unicode="`" horiz-adv-x="768" d="M299 1526h387l168 -318h-281z" />
<glyph unicode="a" horiz-adv-x="1429" d="M117 453q0 181 71.5 332.5t195.5 239t271 87.5q162 0 258 -133l15 106h495l-98 -698q-1 -11 -1 -20q0 -39 24 -53q16 -9 42 -9q22 0 50 6l-43 -299q-115 -39 -287 -39q-111 0 -183 46t-98 124q-143 -170 -350 -170q-111 0 -194.5 65t-125.5 173t-42 242zM602 516 q0 -66 32.5 -110t88.5 -44q70 0 121 63t51 148q0 66 -33.5 110t-87.5 44q-71 0 -121.5 -62.5t-50.5 -148.5z" />
<glyph unicode="b" horiz-adv-x="1370" d="M96 0l213 1513h498l-76 -538q140 137 311 137q167 0 265 -134.5t98 -340.5q0 -177 -63 -327.5t-183.5 -243.5t-275.5 -93q-94 0 -168 44t-121 122l-21 -139h-477zM627 516q0 -66 32.5 -110t88.5 -44q71 0 121.5 62.5t50.5 148.5q0 66 -32.5 110t-88.5 44 q-71 0 -121.5 -62.5t-50.5 -148.5z" />
<glyph unicode="c" horiz-adv-x="1048" d="M117 461q0 139 48.5 259.5t134.5 207t211 135.5t271 49q179 0 371 -74l-113 -336q-92 43 -192 43q-67 0 -116.5 -21.5t-75 -56.5t-37 -71.5t-11.5 -75.5q0 -69 47 -119.5t146 -50.5q109 0 205 45l14 -350q-202 -72 -391 -72q-237 0 -374.5 133.5t-137.5 354.5z" />
<glyph unicode="d" horiz-adv-x="1419" d="M117 453q0 184 72 335.5t195 237.5t271 86q162 0 258 -133l74 534h496l-158 -1126q-1 -11 -1 -20q0 -39 24 -53q16 -9 42 -9q22 0 50 6l-43 -299q-115 -39 -287 -39q-111 0 -183 46t-98 124q-70 -82 -153.5 -126t-196.5 -44q-111 0 -194.5 65t-125.5 173t-42 242z M602 516q0 -66 32.5 -110t88.5 -44q70 0 121 63t51 148q0 66 -33.5 110t-87.5 44q-71 0 -121.5 -62.5t-50.5 -148.5z" />
<glyph unicode="e" horiz-adv-x="1189" d="M111 463q0 179 86 327.5t239 235t340 86.5q197 0 319 -99.5t122 -267.5q0 -82 -28.5 -146t-77 -103t-112 -66.5t-134.5 -36t-145 -11.5q-17 -1 -34 -1q-56 0 -108 8q41 -76 198 -76q162 0 293 43l16 -313q-218 -70 -415 -70q-262 0 -410.5 121t-148.5 369zM590 653 q18 -4 44 -5q11 0 23 2q41 2 79 8.5t65.5 30.5t27.5 61q0 28 -19.5 43.5t-49.5 15.5q-68 0 -110.5 -45t-59.5 -111z" />
<glyph unicode="f" horiz-adv-x="860" d="M-55 -385l41 299q28 -4 45 -4q28 0 46.5 3.5t40 14.5t35 37t19.5 66l98 696h-110l51 358h111q18 112 53.5 195t78.5 132t101.5 78.5t114 39.5t125.5 10q167 0 278 -51l-72 -287q-28 4 -47 4q-27 0 -44.5 -3.5t-37 -14.5t-33.5 -36.5t-24 -66.5h166l-51 -358h-164 l-98 -696q-15 -105 -50.5 -186t-81 -131t-105.5 -82t-118 -44t-123 -12q-142 0 -245 39z" />
<glyph unicode="g" horiz-adv-x="1366" d="M121 -162q0 102 73.5 185t204.5 124q-127 30 -199.5 143t-72.5 269q0 150 67.5 277.5t184.5 201.5t256 74q194 0 297 -141l16 114h475l-129 -913q-45 -316 -206.5 -456t-489.5 -140q-252 0 -364.5 72t-112.5 190zM592 -41q0 -86 78 -86q47 0 77 31t39 92l21 143 q-9 -1 -23.5 -3.5t-51.5 -14.5t-65.5 -30t-51.5 -53t-23 -79zM608 551q0 -62 30.5 -102.5t82.5 -40.5q64 0 112 59t48 139q0 61 -31 102.5t-84 41.5q-65 0 -111.5 -59.5t-46.5 -139.5z" />
<glyph unicode="h" horiz-adv-x="1419" d="M96 0l213 1513h498l-74 -528q62 59 144 93t172 34q171 0 261 -106q72 -84 71 -203q0 -32 -5 -66l-51 -354q-1 -10 -1 -19q0 -39 25 -52q16 -8 40 -8q22 0 51 7l-43 -299q-115 -39 -287 -39q-164 0 -240 87q-60 69 -59 166q0 26 4 53l49 342q1 8 1 16q0 31 -19 55 q-24 30 -62 29q-37 0 -66.5 -29.5t-35.5 -70.5l-88 -621h-498z" />
<glyph unicode="i" horiz-adv-x="741" d="M135 279l113 806h497l-100 -712q-1 -8 -2 -15q0 -36 29 -48q17 -7 38 -7q22 0 50 8l-43 -299q-115 -39 -287 -39q-164 0 -238 87q-60 70 -61 169q0 24 4 50zM260 1190l45 323h508l-45 -323h-508z" />
<glyph unicode="j" horiz-adv-x="692" d="M-125 -385l41 299q28 -4 45 -4q28 0 46.5 3.5t40 14.5t35 37t19.5 66l150 1054h493l-147 -1054q-15 -105 -50 -186t-81 -131t-105.5 -82t-117.5 -44t-123 -12q-143 0 -246 39zM262 1190l45 323h508l-45 -323h-508z" />
<glyph unicode="k" horiz-adv-x="1331" d="M96 0l213 1513h498l-111 -778q40 25 71.5 51t65.5 66.5t60 99.5t41 133h479q-9 -161 -88.5 -281t-239.5 -218q48 -120 76 -164q68 -103 171 -103q16 0 34 3l-43 -310q-115 -39 -236 -39q-93 0 -164 37t-140 136t-132 268l-57 -414h-498z" />
<glyph unicode="l" horiz-adv-x="776" d="M152 269q-1 20 -1 41q0 54 7 118l153 1085h494l-152 -1085q-3 -20 -3 -36.5t3 -29.5q6 -26 24 -37t35.5 -14.5t45.5 -3.5q21 0 49 4l-43 -299q-115 -39 -260 -39q-53 0 -99.5 8.5t-92 29t-77 54.5t-55.5 84.5t-28 119.5z" />
<glyph unicode="m" horiz-adv-x="2050" d="M96 0l152 1085h475l-14 -110q61 61 153 99t187 38q99 0 171.5 -42t110.5 -116q60 60 163 109t218 49q176 0 262 -105q67 -82 67 -201q0 -33 -5 -69l-51 -354q-1 -10 -1 -19q0 -39 24 -52q16 -8 40 -8q22 0 51 7l-43 -299q-115 -39 -287 -39q-164 0 -239 87 q-59 69 -59 165q0 26 4 54l49 342q1 9 1 18q0 30 -16 53q-21 29 -59 29q-36 0 -64 -29t-34 -71l-88 -621h-498l88 621q1 9 1 18q0 30 -16 53q-21 29 -59 29q-36 0 -64 -29t-34 -71l-88 -621h-498z" />
<glyph unicode="n" horiz-adv-x="1404" d="M96 0l152 1085h481l-14 -106q146 133 342 133q163 0 253 -106q71 -85 71 -205q0 -31 -5 -64l-51 -354q-1 -10 -1 -19q0 -39 25 -52q16 -8 40 -8q22 0 51 7l-43 -299q-115 -39 -287 -39q-164 0 -240 87q-60 69 -59 166q0 26 4 53l49 342q1 8 1 16q0 31 -19 55 q-24 30 -62 29q-37 0 -66.5 -29.5t-35.5 -70.5l-88 -621h-498z" />
<glyph unicode="o" horiz-adv-x="1331" d="M113 469q0 148 59 271t158 203.5t226.5 124.5t266.5 44q154 0 277 -58t196.5 -172.5t73.5 -267.5q0 -146 -59 -268.5t-157.5 -203t-225 -125t-264.5 -44.5q-156 0 -280 57.5t-197.5 171.5t-73.5 267zM594 512q0 -69 32 -114.5t89 -45.5q72 0 123 66.5t51 154.5 q0 69 -32 114.5t-89 45.5q-72 0 -123 -66.5t-51 -154.5z" />
<glyph unicode="p" horiz-adv-x="1370" d="M41 -397l209 1482h477l-20 -139q70 78 156.5 122t180.5 44q110 0 193.5 -64.5t125.5 -172.5t42 -242q0 -177 -68.5 -328t-193 -241.5t-277.5 -90.5q-164 0 -256 133l-71 -503h-498zM627 516q0 -66 32.5 -110t88.5 -44q71 0 121.5 62.5t50.5 148.5q0 66 -32.5 110 t-88.5 44q-71 0 -121.5 -62.5t-50.5 -148.5z" />
<glyph unicode="q" horiz-adv-x="1370" d="M117 449q0 179 68.5 331t189 242t264.5 90q93 0 167.5 -44.5t123.5 -121.5l18 139h475l-206 -1482h-496l70 508q-138 -138 -312 -138q-166 0 -264 135.5t-98 340.5zM602 516q0 -66 33.5 -110t89.5 -44q70 0 120 63t50 148q0 66 -32.5 110t-86.5 44q-72 0 -123 -63 t-51 -148z" />
<glyph unicode="r" horiz-adv-x="927" d="M96 0l152 1085h465l-27 -192q13 23 22 37.5t26.5 40.5t33.5 42.5t39.5 37.5t49 32.5t55.5 20.5q29 9 64 9q2 -1 4 -1q37 0 77 -10l-60 -426q-34 5 -66 5q-99 0 -167 -51q-90 -67 -113 -224l-57 -406h-498z" />
<glyph unicode="s" horiz-adv-x="1064" d="M59 98l88 312q61 -49 152.5 -80t171.5 -31q100 0 100 39q0 15 -22 24.5t-56.5 16.5t-76.5 17t-84.5 30.5t-77 51t-56.5 85t-22 127.5q0 133 71.5 229.5t196.5 144.5t289 48q207 0 395 -88l-86 -297q-136 66 -280 66q-96 0 -96 -35q0 -16 22 -26.5t58 -18.5t79 -18 t85.5 -31.5t78.5 -52.5t58 -86.5t22 -129.5q0 -199 -150 -310.5t-399 -111.5q-259 0 -461 125z" />
<glyph unicode="t" horiz-adv-x="913" d="M156 727l51 358h106l35 252h496l-35 -252h180l-51 -358h-180l-41 -289q-2 -12 -2 -23q0 -42 25 -65q31 -28 83 -28q31 0 88 10l-41 -295q-150 -64 -340 -64q-333 0 -333 265q0 34 6 73l59 416h-106z" />
<glyph unicode="u" horiz-adv-x="1390" d="M137 348l105 737h495l-88 -620l-2 -16q0 -31 19 -55q23 -30 61 -29q37 0 67.5 29.5t36.5 70.5l89 620h495l-96 -690q-2 -14 -2 -26q-1 -41 23 -55q17 -10 44 -10q22 0 50 7l-43 -299q-115 -39 -287 -39q-113 0 -184.5 42t-98.5 114q-169 -156 -366 -156q-161 1 -251 107 q-71 85 -72 204q0 31 5 64z" />
<glyph unicode="v" horiz-adv-x="1351" d="M156 436l90 649h495l-88 -620q-2 -10 -1 -20q0 -29 13 -51q18 -29 54 -29q65 0 113 87q50 86 60 246q2 24 1 49q0 145 -51 338h487q32 -156 37 -291q1 -29 1 -56q-1 -101 -15 -181q-18 -102 -56 -187t-88 -144.5t-113 -105t-125.5 -73t-131.5 -45t-126 -23.5t-114 -6 q-248 -1 -360 121q-89 96 -88 254q0 42 6 88z" />
<glyph unicode="w" horiz-adv-x="1929" d="M147 436l91 649h485l-86 -620q-3 -17 -3 -32q0 -68 60 -68q69 0 84 94l88 626h486l-88 -620q-2 -13 -2 -24q0 -29 11 -49q15 -28 50 -27q63 0 109 85q48 85 56 245q1 19 1 40q0 148 -55 350h485q19 -153 20 -286q0 -8 1 -16q0 -123 -16 -219q-16 -102 -46 -186 t-69 -144.5t-89.5 -107t-102.5 -75t-111.5 -46.5t-113.5 -25t-112 -7q-137 0 -219 42t-139 135q-137 -177 -392 -177q-208 1 -310 121q-79 93 -80 247q0 45 7 95z" />
<glyph unicode="x" horiz-adv-x="1314" d="M-10 0l418 567l-232 518h479l115 -284l193 284h479l-373 -518l256 -567h-528l-95 324l-184 -324h-528z" />
<glyph unicode="y" horiz-adv-x="1353" d="M111 -164q0 102 68.5 183.5t193.5 123.5q-129 10 -187 85q-45 57 -45 146q0 25 4 54l93 657h495l-82 -587q-1 -9 -1 -17q0 -32 18 -56q23 -30 61 -30q37 0 68 30t37 73l81 587h498l-129 -913q-44 -315 -206.5 -455.5t-485.5 -140.5q-132 0 -228 20.5t-150 57t-78.5 81.5 t-24.5 101zM580 -49q0 -78 71 -78q94 0 111 121l20 145q-8 -1 -21.5 -4t-48.5 -16.5t-61.5 -32t-48.5 -54.5t-22 -81z" />
<glyph unicode="z" horiz-adv-x="1179" d="M35 -141q0 91 52 164.5t129.5 115t156 63t143.5 21.5q-32 19 -107 25q-39 3 -72 3q-31 0 -56 -3l-68 268q292 63 410 107.5t118 91.5q0 45 -92 45q-84 0 -188.5 -27.5t-190.5 -64.5l-73 313q327 131 581 131q217 0 329 -87.5t112 -229.5q0 -123 -88 -212t-265 -167 q140 -26 233 -137q87 -104 87 -250v-19q-6 -200 -175 -317t-487 -117q-135 0 -232.5 22t-152 61.5t-79.5 89t-25 110.5zM504 -49q0 -78 82 -78q44 0 77 24.5t47 60.5q12 31 13 68q-1 6 -1 12q-2 44 -24 79q-8 -1 -21 -4.5t-46.5 -16.5t-59 -30t-46.5 -47.5t-21 -67.5z" />
<glyph unicode="{" horiz-adv-x="831" d="M78 418l33 233q79 4 148 40t79 104l41 286q54 385 452 385h168l-36 -258h-129q-57 0 -84.5 -31t-36.5 -96l-31 -215q-39 -267 -240 -331q68 -24 106 -78t43 -118t-3 -136l-31 -215q-9 -65 11 -96t77 -31h129l-37 -258h-168q-194 0 -282.5 95t-61.5 290l39 286 q7 47 -22 80t-71 47t-93 17z" />
<glyph unicode="|" horiz-adv-x="430" d="M45 -397l262 1863h230l-263 -1863h-229z" />
<glyph unicode="}" horiz-adv-x="831" d="M-16 -397l36 258h130q57 0 84 30.5t36 96.5l31 215q10 75 34 136.5t77 116.5t129 79q-181 64 -146 331l29 215q9 65 -10 96t-76 31h-129l37 258h168q193 0 281 -95t61 -290l-39 -286q-7 -47 23 -80.5t72 -47.5t91 -16l-33 -233q-83 -5 -150 -40.5t-77 -103.5l-41 -286 q-54 -385 -450 -385h-168z" />
<glyph unicode="~" horiz-adv-x="1304" d="M121 401q8 55 29.5 114t59 118.5t85.5 106.5t114.5 76.5t139.5 29.5q76 0 144 -24t108 -52t85.5 -52t82.5 -24q100 0 168 172h231q-11 -77 -47 -157t-90.5 -149.5t-133 -114t-165.5 -44.5q-75 0 -139.5 23.5t-102 51.5t-86 51.5t-96.5 23.5q-55 0 -96 -45.5t-62 -104.5 h-229z" />
<glyph unicode="&#xa1;" horiz-adv-x="643" d="M35 -299l31 225l172 643h327l-12 -643l-31 -225h-487zM188 676l58 409h456l-57 -409h-457z" />
<glyph unicode="&#xa2;" horiz-adv-x="1069" d="M129 520q0 257 158.5 437t417.5 212l28 203h195l-29 -203q124 -15 252 -61l-88 -272q-73 28 -178 28q-87 0 -150.5 -28t-96.5 -74t-48 -93.5t-15 -97.5q0 -41 12 -78t37.5 -70.5t73.5 -53t113 -19.5q107 0 186 31l17 -289q-139 -46 -275 -59l-41 -293h-194l43 295 q-198 24 -308 155t-110 330z" />
<glyph unicode="&#xa3;" horiz-adv-x="1222" d="M104 0l27 184q107 128 145.5 229.5t36.5 204.5h-168l25 162h137q-32 290 138.5 460.5t492.5 170.5q233 0 414 -68l-131 -380q-119 36 -215 36q-106 0 -158 -51.5t-53 -167.5h272l-25 -162h-251q-6 -112 -60 -243h434l-53 -375h-1008z" />
<glyph unicode="&#xa4;" horiz-adv-x="1349" d="M63 70l199 182q-49 101 -49 240q0 193 135 372l-147 183l182 165l147 -182q145 90 304 90q158 0 278 -90l199 182l135 -165l-199 -183q47 -100 47 -237q0 -199 -133 -375l148 -182l-181 -166l-149 182q-148 -92 -303 -92q-156 0 -279 92l-196 -182zM463 522 q0 -113 71.5 -189.5t178.5 -76.5q131 0 231 101t100 237q0 114 -69.5 190t-177.5 76q-131 0 -232.5 -101t-101.5 -237z" />
<glyph unicode="&#xa5;" horiz-adv-x="1431" d="M211 274l22 162h297l9 58l-39 112h-242l23 162h163l-206 616h485l117 -518l258 518h485l-381 -616h168l-22 -162h-246l-70 -112l-8 -58h299l-23 -162h-299l-38 -274h-494l39 274h-297z" />
<glyph unicode="&#xa6;" horiz-adv-x="536" d="M53 -399l109 778h319l-108 -778h-320zM203 659l98 701h320l-99 -701h-319z" />
<glyph unicode="&#xa7;" horiz-adv-x="1021" d="M61 -176l95 256q67 -33 153 -56.5t160 -23.5q123 0 123 59q0 26 -26 44.5t-67.5 30.5t-92 24.5t-100.5 32t-91.5 46t-67.5 73t-26 108.5q0 90 51 159t143 101q-67 67 -67 190q0 183 129.5 289.5t343.5 106.5q169 0 362 -72l-94 -256q-159 63 -284 63t-125 -59 q0 -26 25.5 -44.5t66 -30.5t90 -24.5t99 -32t90 -46t66 -73.5t25.5 -109q0 -90 -51 -157t-141 -101q76 -67 76 -193q0 -180 -130 -286.5t-341 -106.5q-195 0 -394 88zM467 512q0 -37 39 -56t117 -36q71 13 71 65q0 36 -34 55.5t-119 39.5q-74 -13 -74 -68z" />
<glyph unicode="&#xa8;" horiz-adv-x="1120" d="M334 1225l37 268h317l-37 -268h-317zM823 1225l37 268h318l-37 -268h-318z" />
<glyph unicode="&#xa9;" horiz-adv-x="1466" d="M147 651q0 182 90 337t245 245t337 90t336.5 -90t244 -244.5t89.5 -337.5q0 -137 -53 -261t-142.5 -213t-213.5 -142t-261 -53t-261 53t-214.5 142t-143.5 213t-53 261zM238 651q0 -118 46 -225t123.5 -184.5t185 -123.5t226.5 -46q157 0 290.5 77.5t211.5 211t78 290.5 q0 119 -46 226.5t-124 185.5t-185 124t-225 46q-158 0 -292 -78t-211.5 -212t-77.5 -292zM451 651q0 167 107 266t278 99q119 0 268 -49l-62 -211q-78 32 -137 32q-71 0 -111 -38t-40 -99q0 -59 40 -98t109 -39q57 0 139 33l62 -211q-143 -47 -268 -47q-173 0 -279 98 t-106 264z" />
<glyph unicode="&#xaa;" horiz-adv-x="972" d="M80 791q0 123 48.5 226t132.5 162.5t185 59.5q111 0 175 -90l10 72h338l-68 -473q-6 -39 15.5 -51.5t62.5 -2.5l-29 -202q-91 -27 -194 -27q-76 0 -125.5 31.5t-67.5 85.5q-95 -117 -237 -117q-114 0 -180 93t-66 233zM410 834q0 -44 22.5 -74.5t59.5 -30.5q47 0 81.5 43 t34.5 100q0 45 -22.5 75t-59.5 30q-49 0 -82.5 -42t-33.5 -101z" />
<glyph unicode="&#xab;" horiz-adv-x="1587" d="M125 549l442 493h439l-478 -493l338 -494h-438zM809 549l444 493h437l-476 -493l336 -494h-436z" />
<glyph unicode="&#xac;" horiz-adv-x="1265" d="M162 684l43 305h1098l-91 -645h-292l47 340h-805z" />
<glyph unicode="&#xad;" horiz-adv-x="829" d="M147 375l46 317h641l-46 -317h-641z" />
<glyph unicode="&#xae;" horiz-adv-x="1447" d="M141 651q0 182 90 337t245 245t337 90t336.5 -90t244 -244.5t89.5 -337.5q0 -137 -53 -261t-142.5 -213t-213.5 -142t-261 -53t-261 53t-214.5 142t-143.5 213t-53 261zM231 651q0 -118 46 -225t124 -184.5t185.5 -123.5t226.5 -46q157 0 290.5 77.5t211.5 211t78 290.5 q0 119 -46 226.5t-124 185.5t-185 124t-225 46q-158 0 -292 -78t-212 -212t-78 -292zM504 301v692q156 23 270 23q80 0 145.5 -12t121.5 -38.5t87 -75.5t31 -118q0 -61 -29 -106t-71 -72q51 -37 78.5 -101t46.5 -192h-283q-10 85 -27 131.5t-36.5 60.5t-51.5 15v-207h-282z M780 680q45 -3 77 16t32 52q0 32 -30.5 50t-78.5 15v-133z" />
<glyph unicode="&#xaf;" horiz-adv-x="1005" d="M324 1247l28 207h695l-29 -207h-694z" />
<glyph unicode="&#xb0;" horiz-adv-x="729" d="M211 1141q0 126 89 215.5t216 89.5q126 0 215.5 -89.5t89.5 -215.5t-89.5 -215.5t-215.5 -89.5q-127 0 -216 89.5t-89 215.5zM379 1141q0 -57 40 -97t97 -40t97 40t40 97t-40 97t-97 40t-97 -40t-40 -97z" />
<glyph unicode="&#xb1;" horiz-adv-x="1173" d="M86 0l45 317h1002l-46 -317h-1001zM170 602l45 318h346l29 206h309l-29 -206h347l-46 -318h-346l-28 -207h-310l29 207h-346z" />
<glyph unicode="&#xb2;" horiz-adv-x="788" d="M174 860l35 244q37 22 95 55t94 53.5t79.5 48.5t68 49t41.5 45.5t17 47.5q0 47 -88 47q-111 0 -223 -53l-10 239q67 28 166.5 49t173.5 21q68 0 120 -10t95.5 -34t66.5 -68.5t23 -108.5q0 -49 -14 -92.5t-35.5 -77.5t-59 -70.5t-74 -64t-90.5 -64.5h232l-37 -256h-676z " />
<glyph unicode="&#xb3;" horiz-adv-x="788" d="M172 893l64 246q106 -52 206 -52q131 0 131 46q0 38 -71 38h-152l31 220h119q46 0 70 8t24 33q0 20 -22 26t-70 6q-94 0 -191 -39l-4 232q135 49 291 49q145 0 227 -52.5t82 -156.5q0 -76 -44 -129t-113 -82q59 -16 100 -65.5t41 -114.5q0 -70 -34.5 -122.5t-94.5 -82 t-131.5 -43.5t-155.5 -14q-181 0 -303 49z" />
<glyph unicode="&#xb4;" horiz-adv-x="821" d="M274 1208l261 318h387l-365 -318h-283z" />
<glyph unicode="&#xb5;" horiz-adv-x="1349" d="M41 -397l209 1482h498l-91 -641q-6 -41 16.5 -70.5t59.5 -29.5q38 0 69.5 29.5t37.5 70.5l90 641h495l-153 -1085h-428l14 92q-92 -119 -219 -119q-39 0 -82 19l-55 -389h-461z" />
<glyph unicode="&#xb6;" horiz-adv-x="1140" d="M188 987q0 161 118.5 279t273.5 118h690l-19 -133h-161l-201 -1423h-152l201 1423h-160l-200 -1423h-150l121 848h-68q-128 0 -210.5 89.5t-82.5 221.5z" />
<glyph unicode="&#xb7;" horiz-adv-x="643" d="M156 444l57 410h457l-58 -410h-456z" />
<glyph unicode="&#xb8;" horiz-adv-x="661" d="M10 -424l68 119q26 -6 44.5 -9t51.5 -7.5t55.5 -2t46 9t36 23.5t12.5 43q0 57 -158 68l172 246l158 16l-154 -201q89 -3 147 -45.5t58 -109.5q0 -84 -72.5 -143.5t-200.5 -59.5q-144 0 -264 53z" />
<glyph unicode="&#xb9;" horiz-adv-x="788" d="M299 1329l27 184q229 0 266 179h256l-117 -832h-307l65 469h-190z" />
<glyph unicode="&#xba;" horiz-adv-x="905" d="M76 803q0 80 26 150t72 122t107 89.5t132 56t146 18.5q162 0 267.5 -90.5t105.5 -247.5q0 -99 -40 -182.5t-107.5 -138t-154 -85t-179.5 -30.5q-162 0 -268.5 90.5t-106.5 247.5zM403 831q0 -46 22 -77t60 -31q50 0 84.5 44.5t34.5 104.5q0 47 -21.5 78t-60.5 31 q-50 0 -84.5 -45t-34.5 -105z" />
<glyph unicode="&#xbb;" horiz-adv-x="1587" d="M53 55l475 494l-335 493h438l303 -493l-442 -494h-439zM737 55l477 494l-337 493h438l303 -493l-442 -494h-439z" />
<glyph unicode="&#xbc;" horiz-adv-x="2168" d="M287 1044l24 185q232 0 269 178h258l-119 -832h-309l67 469h-190zM494 -39l1079 1473h297l-1079 -1473h-297zM1307 150l32 231l369 450h363l-64 -448h76l-33 -233h-76l-20 -150h-289l21 150h-379zM1587 377h137l29 207z" />
<glyph unicode="&#xbd;" horiz-adv-x="2168" d="M258 1044l25 185q231 0 268 178h256l-119 -832h-307l68 469h-191zM465 -39l1077 1473h299l-1079 -1473h-297zM1397 0l35 244q34 20 83 47.5t81.5 46t72 42.5t65 42.5t48.5 39.5t34 41t11 40q0 47 -88 47q-109 0 -221 -53l-13 239q69 29 168 49.5t174 20.5q68 0 120 -10 t95.5 -34t66.5 -68.5t23 -108.5q0 -60 -19 -111t-59.5 -96.5t-83 -80t-110.5 -81.5h231l-36 -256h-678z" />
<glyph unicode="&#xbe;" horiz-adv-x="2168" d="M188 608l66 246q104 -51 207 -51q131 0 131 45q0 39 -72 39h-151l30 219h119q43 0 67.5 8t24.5 33q0 20 -22 26.5t-68 6.5q-92 0 -190 -39l-4 231q135 49 288 49q146 0 229 -52.5t83 -156.5q0 -76 -45 -128.5t-113 -82.5q59 -16 100 -65.5t41 -114.5q0 -70 -34.5 -122.5 t-95 -82t-132 -43.5t-155.5 -14q-182 0 -304 49zM514 -39l1077 1473h299l-1079 -1473h-297zM1346 150l30 231l369 450h362l-61 -448h76l-33 -233h-76l-22 -150h-289l22 150h-378zM1624 377h137l29 207z" />
<glyph unicode="&#xbf;" horiz-adv-x="1001" d="M49 -39q0 78 32 147.5t79 120.5t94.5 97.5t85.5 98t45 101.5l6 43h389l-10 -69q-7 -47 -34.5 -93t-61.5 -83t-67.5 -73.5t-56 -77t-22.5 -79.5q0 -36 23.5 -51.5t83.5 -15.5q121 0 272 57l17 -326q-217 -84 -449 -84q-426 0 -426 287zM367 676l57 409h457l-58 -409h-456z " />
<glyph unicode="&#xc0;" d="M-25 0l654 1384h604l266 -1384h-508l-26 231h-390l-90 -231h-510zM569 1825h387l168 -318h-280zM705 555h221l-52 426z" />
<glyph unicode="&#xc1;" d="M-25 0l654 1384h604l266 -1384h-508l-26 231h-390l-90 -231h-510zM705 555h221l-52 426zM752 1507l260 318h387l-365 -318h-282z" />
<glyph unicode="&#xc2;" d="M-25 0l654 1384h604l266 -1384h-508l-26 231h-390l-90 -231h-510zM528 1507l277 318h377l186 -318h-283l-116 144l-158 -144h-283zM705 555h221l-52 426z" />
<glyph unicode="&#xc3;" d="M-25 0l654 1384h604l266 -1384h-508l-26 231h-390l-90 -231h-510zM551 1503q9 69 47.5 140t104.5 123.5t139 52.5q51 0 95 -16t69.5 -35.5t55 -35.5t54.5 -16q29 0 59.5 32t51.5 81h162q-13 -77 -55 -152.5t-107.5 -127.5t-134.5 -52q-50 0 -92 15.5t-66 34.5t-56 34.5 t-63 15.5t-60.5 -28t-45.5 -66h-158zM705 555h221l-52 426z" />
<glyph unicode="&#xc4;" d="M-25 0l654 1384h604l266 -1384h-508l-26 231h-390l-90 -231h-510zM549 1524l37 268h317l-37 -268h-317zM705 555h221l-52 426zM1040 1524l37 268h318l-37 -268h-318z" />
<glyph unicode="&#xc5;" d="M-25 0l654 1384h604l266 -1384h-508l-26 231h-390l-90 -231h-510zM705 555h221l-52 426zM733 1659q0 114 82.5 187t192.5 73q91 0 150 -55.5t59 -147.5q0 -114 -82.5 -187t-192.5 -73q-91 0 -150 55.5t-59 147.5zM872 1673q0 -38 25 -62t64 -24q48 0 81 32.5t33 82.5 q0 38 -24 62t-62 24q-48 0 -82.5 -32.5t-34.5 -82.5z" />
<glyph unicode="&#xc6;" horiz-adv-x="2039" d="M-59 0l890 1384h1321l-55 -389h-555l-8 -121h463l-51 -360h-439l-8 -127h514l-55 -387h-946l14 223h-434l-139 -223h-512zM797 555h254l32 440h-12z" />
<glyph unicode="&#xc7;" horiz-adv-x="1294" d="M143 604q0 142 40.5 267.5t115.5 223.5t178 169.5t233 109t275 37.5q223 0 457 -86l-152 -367q-106 52 -243 52q-178 0 -281.5 -98.5t-103.5 -254.5q0 -136 81 -206t228 -70q140 0 260 51l45 -373q-258 -86 -479 -86h-19l-69 -92q89 -3 146.5 -45.5t57.5 -109.5 q0 -84 -72.5 -143.5t-199.5 -59.5q-144 0 -264 53l67 119q26 -6 44.5 -9t51.5 -7.5t55.5 -2t46 9t36 23.5t12.5 43q0 57 -158 68l115 166q-237 37 -370.5 196t-133.5 422z" />
<glyph unicode="&#xc8;" horiz-adv-x="1280" d="M113 0l194 1384h1086l-56 -389h-592l-16 -121h518l-51 -360h-518l-16 -127h591l-55 -387h-1085zM496 1825h387l168 -318h-281z" />
<glyph unicode="&#xc9;" horiz-adv-x="1280" d="M113 0l194 1384h1086l-56 -389h-592l-16 -121h518l-51 -360h-518l-16 -127h591l-55 -387h-1085zM633 1507l260 318h387l-365 -318h-282z" />
<glyph unicode="&#xca;" horiz-adv-x="1280" d="M113 0l194 1384h1086l-56 -389h-592l-16 -121h518l-51 -360h-518l-16 -127h591l-55 -387h-1085zM446 1507l277 318h377l186 -318h-280l-119 144l-158 -144h-283z" />
<glyph unicode="&#xcb;" horiz-adv-x="1280" d="M113 0l194 1384h1086l-56 -389h-592l-16 -121h518l-51 -360h-518l-16 -127h591l-55 -387h-1085zM471 1524l37 268h317l-37 -268h-317zM963 1524l36 268h318l-37 -268h-317z" />
<glyph unicode="&#xcc;" horiz-adv-x="733" d="M113 0l194 1384h508l-194 -1384h-508zM223 1825h387l168 -318h-280z" />
<glyph unicode="&#xcd;" horiz-adv-x="733" d="M113 0l194 1384h508l-194 -1384h-508zM381 1507l258 318h387l-364 -318h-281z" />
<glyph unicode="&#xce;" horiz-adv-x="733" d="M113 0l194 1384h508l-194 -1384h-508zM156 1507l276 318h379l186 -318h-282l-117 144l-160 -144h-282z" />
<glyph unicode="&#xcf;" horiz-adv-x="733" d="M113 0l194 1384h508l-194 -1384h-508zM178 1524l37 268h317l-36 -268h-318zM668 1524l37 268h317l-37 -268h-317z" />
<glyph unicode="&#xd0;" horiz-adv-x="1542" d="M94 606l29 205h127l80 565q221 35 510 35q347 0 552 -166t205 -463q0 -113 -22 -211t-60.5 -172t-94 -136t-118 -105t-137.5 -76.5t-147.5 -53.5t-153 -33t-149 -17.5t-140.5 -4.5q-182 0 -438 29l84 604h-127zM694 367q12 -2 56 -2q112 0 189.5 57.5t111.5 146.5t34 201 q0 125 -61 193.5t-176 68.5q-48 0 -62 -2l-30 -219h202l-28 -205h-203z" />
<glyph unicode="&#xd1;" horiz-adv-x="1583" d="M113 0l194 1384h506l289 -706l98 706h465l-195 -1384h-479l-313 711l-100 -711h-465zM623 1503q7 50 31.5 104.5t61.5 102.5t89 78.5t108 30.5q51 0 95.5 -16t70 -35.5t55 -35.5t54.5 -16q29 0 60 32.5t50 80.5h162q-13 -77 -55 -152.5t-107.5 -127.5t-134.5 -52 q-50 0 -91.5 15.5t-65.5 34.5t-56 34.5t-63 15.5t-61 -28t-46 -66h-157z" />
<glyph unicode="&#xd2;" horiz-adv-x="1593" d="M141 600q0 179 64.5 331t177.5 257t270 164t338 59q306 0 481 -164t175 -463q0 -179 -64.5 -331t-177.5 -257t-270 -164t-338 -59q-306 0 -481 164t-175 463zM653 631q0 -260 197 -260q136 0 210.5 107.5t74.5 277.5q0 129 -48 193.5t-149 64.5q-136 0 -210.5 -107.5 t-74.5 -275.5zM657 1825h387l168 -318h-282z" />
<glyph unicode="&#xd3;" horiz-adv-x="1593" d="M141 600q0 179 64.5 331t177.5 257t270 164t338 59q306 0 481 -164t175 -463q0 -179 -64.5 -331t-177.5 -257t-270 -164t-338 -59q-306 0 -481 164t-175 463zM653 631q0 -260 197 -260q136 0 210.5 107.5t74.5 277.5q0 129 -48 193.5t-149 64.5q-136 0 -210.5 -107.5 t-74.5 -275.5zM791 1507l260 318h387l-365 -318h-282z" />
<glyph unicode="&#xd4;" horiz-adv-x="1593" d="M141 600q0 179 64.5 331t177.5 257t270 164t338 59q306 0 481 -164t175 -463q0 -179 -64.5 -331t-177.5 -257t-270 -164t-338 -59q-306 0 -481 164t-175 463zM586 1507l276 318h379l186 -318h-282l-117 144l-160 -144h-282zM653 631q0 -260 197 -260q136 0 210.5 107.5 t74.5 277.5q0 129 -48 193.5t-149 64.5q-136 0 -210.5 -107.5t-74.5 -275.5z" />
<glyph unicode="&#xd5;" horiz-adv-x="1593" d="M141 600q0 179 64.5 331t177.5 257t270 164t338 59q306 0 481 -164t175 -463q0 -179 -64.5 -331t-177.5 -257t-270 -164t-338 -59q-306 0 -481 164t-175 463zM610 1503q7 50 31.5 104.5t61 102.5t88.5 78.5t108 30.5q51 0 96 -16t70.5 -35.5t54.5 -35.5t54 -16 q29 0 60 32.5t52 80.5h160q-13 -77 -55 -152.5t-107 -127.5t-133 -52q-50 0 -92 15.5t-66 34.5t-56.5 34.5t-64.5 15.5q-31 0 -60.5 -28t-43.5 -66h-158zM653 631q0 -260 197 -260q136 0 210.5 107.5t74.5 277.5q0 129 -48 193.5t-149 64.5q-136 0 -210.5 -107.5 t-74.5 -275.5z" />
<glyph unicode="&#xd6;" horiz-adv-x="1593" d="M141 600q0 179 64.5 331t177.5 257t270 164t338 59q306 0 481 -164t175 -463q0 -179 -64.5 -331t-177.5 -257t-270 -164t-338 -59q-306 0 -481 164t-175 463zM608 1524l37 268h318l-37 -268h-318zM653 631q0 -260 197 -260q136 0 210.5 107.5t74.5 277.5q0 129 -48 193.5 t-149 64.5q-136 0 -210.5 -107.5t-74.5 -275.5zM1098 1524l37 268h317l-37 -268h-317z" />
<glyph unicode="&#xd7;" horiz-adv-x="1085" d="M90 240l311 284l-233 287l246 225l231 -286l313 286l185 -231l-314 -287l232 -287l-242 -223l-231 287l-314 -287z" />
<glyph unicode="&#xd8;" horiz-adv-x="1593" d="M141 594q0 182 64.5 335.5t178 259t270.5 164t339 58.5q215 0 367 -82l133 160l82 -72l-125 -145q197 -160 197 -481q0 -242 -111 -429.5t-304.5 -288t-436.5 -100.5q-212 0 -369 80l-133 -157l-82 69l125 148q-195 161 -195 481zM653 623q0 -73 13 -117l395 471 q-43 37 -121 37q-139 0 -213 -107t-74 -284zM725 408q46 -37 125 -37q137 0 211 106t74 275q0 73 -15 127z" />
<glyph unicode="&#xd9;" horiz-adv-x="1468" d="M176 547l117 837h508l-117 -831q-6 -50 -3 -88t29.5 -61t77.5 -23q75 0 107.5 44.5t44.5 127.5l117 831h508l-117 -837q-40 -289 -225.5 -431.5t-491.5 -142.5t-450.5 142.5t-104.5 431.5zM594 1825h387l170 -318h-283z" />
<glyph unicode="&#xda;" horiz-adv-x="1468" d="M176 547l117 837h508l-117 -831q-6 -50 -3 -88t29.5 -61t77.5 -23q75 0 107.5 44.5t44.5 127.5l117 831h508l-117 -837q-40 -289 -225.5 -431.5t-491.5 -142.5t-450.5 142.5t-104.5 431.5zM762 1507l258 318h387l-363 -318h-282z" />
<glyph unicode="&#xdb;" horiz-adv-x="1468" d="M176 547l117 837h508l-117 -831q-6 -50 -3 -88t29.5 -61t77.5 -23q75 0 107.5 44.5t44.5 127.5l117 831h508l-117 -837q-40 -289 -225.5 -431.5t-491.5 -142.5t-450.5 142.5t-104.5 431.5zM526 1507l277 318h377l186 -318h-281l-118 144l-158 -144h-283z" />
<glyph unicode="&#xdc;" horiz-adv-x="1468" d="M176 547l117 837h508l-117 -831q-6 -50 -3 -88t29.5 -61t77.5 -23q75 0 107.5 44.5t44.5 127.5l117 831h508l-117 -837q-40 -289 -225.5 -431.5t-491.5 -142.5t-450.5 142.5t-104.5 431.5zM545 1524l37 268h317l-37 -268h-317zM1036 1524l37 268h318l-37 -268h-318z" />
<glyph unicode="&#xdd;" horiz-adv-x="1390" d="M160 1384h514l143 -499l291 499h510l-598 -890l-70 -494h-508l70 494zM668 1507l260 318h387l-365 -318h-282z" />
<glyph unicode="&#xde;" horiz-adv-x="1398" d="M113 0l194 1384h498l-23 -159q109 -3 201 -17t182 -47t153 -83t101.5 -129.5t38.5 -182.5q0 -127 -47.5 -229t-127 -168.5t-186.5 -110t-222 -61t-238 -15.5l-27 -182h-497zM688 553q39 -3 79.5 1.5t86.5 19.5t75 52t29 93q0 34 -17 60.5t-43 39.5t-57.5 21.5t-60 8 t-51.5 -2.5z" />
<glyph unicode="&#xdf;" horiz-adv-x="1447" d="M96 0l135 967q13 89 47.5 171.5t96.5 156t144 127.5t196 86t246 32q231 0 384.5 -113t153.5 -284q0 -127 -72.5 -233.5t-181.5 -155.5q103 -36 159 -121.5t56 -196.5q0 -103 -33.5 -184.5t-89 -133t-133 -85t-159.5 -47t-175 -13.5q-101 0 -198 19l94 356q36 -4 68 -4 q66 0 111.5 30.5t45.5 88.5q0 45 -33 70.5t-90 25.5h-65l51 359h23q73 0 121.5 33.5t48.5 101.5q0 43 -36.5 73.5t-105.5 30.5q-91 0 -142 -52.5t-63 -133.5l-137 -971h-467z" />
<glyph unicode="&#xe0;" horiz-adv-x="1429" d="M117 453q0 181 71.5 332.5t195.5 239t271 87.5q162 0 258 -133l15 106h495l-98 -698q-7 -57 23.5 -73.5t91.5 -2.5l-43 -299q-115 -39 -287 -39q-111 0 -183 46t-98 124q-65 -77 -160.5 -123.5t-189.5 -46.5q-111 0 -194.5 65t-125.5 173t-42 242zM514 1526h387l170 -318 h-283zM602 516q0 -66 32.5 -110t88.5 -44q70 0 121 63t51 148q0 66 -33.5 110t-87.5 44q-71 0 -121.5 -62.5t-50.5 -148.5z" />
<glyph unicode="&#xe1;" horiz-adv-x="1429" d="M117 453q0 181 71.5 332.5t195.5 239t271 87.5q162 0 258 -133l15 106h495l-98 -698q-7 -57 23.5 -73.5t91.5 -2.5l-43 -299q-115 -39 -287 -39q-111 0 -183 46t-98 124q-65 -77 -160.5 -123.5t-189.5 -46.5q-111 0 -194.5 65t-125.5 173t-42 242zM602 516 q0 -66 32.5 -110t88.5 -44q70 0 121 63t51 148q0 66 -33.5 110t-87.5 44q-71 0 -121.5 -62.5t-50.5 -148.5zM608 1208l258 318h387l-364 -318h-281z" />
<glyph unicode="&#xe2;" horiz-adv-x="1429" d="M117 453q0 181 71.5 332.5t195.5 239t271 87.5q162 0 258 -133l15 106h495l-98 -698q-7 -57 23.5 -73.5t91.5 -2.5l-43 -299q-115 -39 -287 -39q-111 0 -183 46t-98 124q-65 -77 -160.5 -123.5t-189.5 -46.5q-111 0 -194.5 65t-125.5 173t-42 242zM428 1208l277 318h378 l187 -318h-283l-119 144l-157 -144h-283zM602 516q0 -66 32.5 -110t88.5 -44q70 0 121 63t51 148q0 66 -33.5 110t-87.5 44q-71 0 -121.5 -62.5t-50.5 -148.5z" />
<glyph unicode="&#xe3;" horiz-adv-x="1429" d="M117 453q0 181 71.5 332.5t195.5 239t271 87.5q162 0 258 -133l15 106h495l-98 -698q-7 -57 23.5 -73.5t91.5 -2.5l-43 -299q-115 -39 -287 -39q-111 0 -183 46t-98 124q-65 -77 -160.5 -123.5t-189.5 -46.5q-111 0 -194.5 65t-125.5 173t-42 242zM459 1204 q9 69 47.5 140t104.5 123.5t139 52.5q51 0 95.5 -16t69.5 -35.5t54.5 -35.5t54.5 -16q29 0 60.5 32.5t50.5 80.5h161q-13 -77 -55 -152.5t-107 -127.5t-133 -52q-51 0 -93 15.5t-65.5 34.5t-55.5 34.5t-64 15.5q-31 0 -61 -28t-46 -66h-157zM602 516q0 -66 32.5 -110 t88.5 -44q70 0 121 63t51 148q0 66 -33.5 110t-87.5 44q-71 0 -121.5 -62.5t-50.5 -148.5z" />
<glyph unicode="&#xe4;" horiz-adv-x="1429" d="M117 453q0 181 71.5 332.5t195.5 239t271 87.5q162 0 258 -133l15 106h495l-98 -698q-7 -57 23.5 -73.5t91.5 -2.5l-43 -299q-115 -39 -287 -39q-111 0 -183 46t-98 124q-65 -77 -160.5 -123.5t-189.5 -46.5q-111 0 -194.5 65t-125.5 173t-42 242zM459 1225l37 268h315 l-37 -268h-315zM602 516q0 -66 32.5 -110t88.5 -44q70 0 121 63t51 148q0 66 -33.5 110t-87.5 44q-71 0 -121.5 -62.5t-50.5 -148.5zM948 1225l37 268h318l-37 -268h-318z" />
<glyph unicode="&#xe5;" horiz-adv-x="1429" d="M117 453q0 181 71.5 332.5t195.5 239t271 87.5q162 0 258 -133l15 106h495l-98 -698q-7 -57 23.5 -73.5t91.5 -2.5l-43 -299q-115 -39 -287 -39q-111 0 -183 46t-98 124q-65 -77 -160.5 -123.5t-189.5 -46.5q-111 0 -194.5 65t-125.5 173t-42 242zM602 516 q0 -66 32.5 -110t88.5 -44q70 0 121 63t51 148q0 66 -33.5 110t-87.5 44q-71 0 -121.5 -62.5t-50.5 -148.5zM610 1403q0 114 83 187t192 73q90 0 149.5 -55.5t59.5 -147.5q0 -114 -82.5 -187t-192.5 -73q-89 0 -149 56t-60 147zM750 1419q0 -39 24.5 -63.5t63.5 -24.5 q48 0 82 32t34 81q0 39 -24.5 63.5t-63.5 24.5q-47 0 -81.5 -32.5t-34.5 -80.5z" />
<glyph unicode="&#xe6;" horiz-adv-x="1853" d="M76 285q0 186 130 286.5t367 100.5q37 0 102 -7t95 -14q4 20 4 27q0 84 -168 84q-176 0 -332 -60l-22 324q226 86 455 86q258 0 372 -151q154 151 369 151q197 0 318.5 -99.5t121.5 -267.5q0 -71 -21.5 -128.5t-58 -96.5t-88 -67t-107.5 -43t-120.5 -22t-123.5 -6t-120 7 q41 -76 199 -76q162 0 293 43l16 -313q-176 -70 -385 -70q-273 0 -405 191q-63 -63 -133 -104.5t-138.5 -58.5t-116 -22.5t-102.5 -5.5q-191 0 -296 88.5t-105 223.5zM553 334q0 -33 19.5 -52.5t56.5 -19.5q103 0 125 141l6 37q-27 6 -72 6q-63 0 -99 -30.5t-36 -81.5z M1262 653q26 -6 66.5 -3.5t78.5 9.5t66 31t28 60q0 28 -19.5 43.5t-49.5 15.5q-68 0 -110.5 -45t-59.5 -111z" />
<glyph unicode="&#xe7;" horiz-adv-x="1048" d="M117 461q0 139 48.5 259.5t134.5 207t211 135.5t271 49q179 0 371 -74l-111 -336q-97 43 -194 43q-67 0 -116.5 -21.5t-75 -56.5t-37 -71.5t-11.5 -75.5q0 -69 48 -119.5t147 -50.5q109 0 205 45l14 -350q-191 -67 -371 -72l-67 -92q89 -3 146.5 -45.5t57.5 -109.5 q0 -85 -71.5 -144t-198.5 -59q-143 0 -266 53l67 119q26 -6 44.5 -9t51.5 -7.5t55.5 -2t46 9t36 23.5t12.5 43q0 58 -157 68l112 162q-188 29 -295.5 157.5t-107.5 321.5z" />
<glyph unicode="&#xe8;" horiz-adv-x="1189" d="M111 463q0 179 86 327.5t239 235t340 86.5q197 0 319 -99.5t122 -267.5q0 -82 -28.5 -146t-77 -103t-112 -66.5t-134.5 -36t-145 -11.5t-142 7q41 -76 198 -76q162 0 293 43l16 -313q-218 -70 -415 -70q-262 0 -410.5 121t-148.5 369zM416 1526h387l170 -318h-283z M590 653q26 -6 67 -3.5t79 9t65.5 30.5t27.5 61q0 28 -19.5 43.5t-49.5 15.5q-68 0 -110.5 -45t-59.5 -111z" />
<glyph unicode="&#xe9;" horiz-adv-x="1189" d="M111 463q0 179 86 327.5t239 235t340 86.5q197 0 319 -99.5t122 -267.5q0 -82 -28.5 -146t-77 -103t-112 -66.5t-134.5 -36t-145 -11.5t-142 7q41 -76 198 -76q162 0 293 43l16 -313q-218 -70 -415 -70q-262 0 -410.5 121t-148.5 369zM535 1208l256 318h387l-363 -318 h-280zM590 653q26 -6 67 -3.5t79 9t65.5 30.5t27.5 61q0 28 -19.5 43.5t-49.5 15.5q-68 0 -110.5 -45t-59.5 -111z" />
<glyph unicode="&#xea;" horiz-adv-x="1189" d="M111 463q0 179 86 327.5t239 235t340 86.5q197 0 319 -99.5t122 -267.5q0 -82 -28.5 -146t-77 -103t-112 -66.5t-134.5 -36t-145 -11.5t-142 7q41 -76 198 -76q162 0 293 43l16 -313q-218 -70 -415 -70q-262 0 -410.5 121t-148.5 369zM346 1208l275 318h378l189 -318 h-283l-121 144l-155 -144h-283zM590 653q26 -6 67 -3.5t79 9t65.5 30.5t27.5 61q0 28 -19.5 43.5t-49.5 15.5q-68 0 -110.5 -45t-59.5 -111z" />
<glyph unicode="&#xeb;" horiz-adv-x="1189" d="M111 463q0 179 86 327.5t239 235t340 86.5q197 0 319 -99.5t122 -267.5q0 -82 -28.5 -146t-77 -103t-112 -66.5t-134.5 -36t-145 -11.5t-142 7q41 -76 198 -76q162 0 293 43l16 -313q-218 -70 -415 -70q-262 0 -410.5 121t-148.5 369zM365 1225l36 268h318l-37 -268h-317 zM590 653q26 -6 67 -3.5t79 9t65.5 30.5t27.5 61q0 28 -19.5 43.5t-49.5 15.5q-68 0 -110.5 -45t-59.5 -111zM854 1225l37 268h317l-37 -268h-317z" />
<glyph unicode="&#xec;" horiz-adv-x="690" d="M135 279l113 806h497l-100 -712q-7 -48 27 -62.5t88 0.5l-43 -299q-115 -39 -287 -39q-164 0 -238.5 87t-56.5 219zM168 1526h387l170 -318h-283z" />
<glyph unicode="&#xed;" horiz-adv-x="690" d="M135 279l113 806h497l-100 -712q-7 -48 27 -62.5t88 0.5l-43 -299q-115 -39 -287 -39q-164 0 -238.5 87t-56.5 219zM315 1208l260 318h388l-365 -318h-283z" />
<glyph unicode="&#xee;" horiz-adv-x="690" d="M94 1208l277 318h377l186 -318h-281l-118 144l-158 -144h-283zM135 279l113 806h497l-100 -712q-7 -48 27 -62.5t88 0.5l-43 -299q-115 -39 -287 -39q-164 0 -238.5 87t-56.5 219z" />
<glyph unicode="&#xef;" horiz-adv-x="690" d="M113 1225l37 268h317l-37 -268h-317zM135 279l113 806h497l-100 -712q-7 -48 27 -62.5t88 0.5l-43 -299q-115 -39 -287 -39q-164 0 -238.5 87t-56.5 219zM604 1225l37 268h317l-36 -268h-318z" />
<glyph unicode="&#xf0;" horiz-adv-x="1236" d="M115 444q0 120 43 226.5t113.5 180t164 116.5t193.5 43q167 0 258 -101q-45 143 -150 260l-299 -118l-26 127l223 88q-80 65 -213 133l434 100q84 -48 139 -92l183 74l28 -127l-110 -45q95 -113 138.5 -268t43.5 -314q0 -183 -56 -329.5t-150.5 -237.5t-212.5 -139 t-249 -48q-103 0 -192 30t-157 87.5t-107 148.5t-39 205zM553 467q0 -60 29.5 -101.5t81.5 -41.5q64 0 109.5 59t45.5 137q0 61 -29.5 101.5t-80.5 40.5q-63 0 -109.5 -59.5t-46.5 -135.5z" />
<glyph unicode="&#xf1;" horiz-adv-x="1404" d="M96 0l152 1085h481l-14 -106q146 133 342 133q163 0 252.5 -106.5t66.5 -268.5l-51 -354q-7 -55 24 -71t91 -1l-43 -299q-115 -39 -287 -39q-164 0 -239.5 87t-55.5 219l49 342q6 41 -18 70.5t-62 29.5q-37 0 -66.5 -29.5t-35.5 -70.5l-88 -621h-498zM459 1204 q7 51 31 105t60 102t87.5 78.5t107.5 30.5q51 0 95.5 -16t70 -35.5t55 -35.5t54.5 -16q29 0 61 33t49 80h162q-12 -76 -54 -152t-107.5 -128t-133.5 -52q-51 0 -93 15.5t-65.5 34.5t-55.5 34.5t-64 15.5q-31 0 -60 -28t-43 -66h-157z" />
<glyph unicode="&#xf2;" horiz-adv-x="1331" d="M113 469q0 148 59 271t158 203.5t226.5 124.5t266.5 44q154 0 277 -58t196.5 -172.5t73.5 -267.5q0 -146 -59 -268.5t-157.5 -203t-225 -125t-264.5 -44.5q-156 0 -280 57.5t-197.5 171.5t-73.5 267zM469 1526h387l170 -318h-283zM594 512q0 -69 32 -114.5t89 -45.5 q72 0 123 66.5t51 154.5q0 69 -32 114.5t-89 45.5q-72 0 -123 -66.5t-51 -154.5z" />
<glyph unicode="&#xf3;" horiz-adv-x="1331" d="M113 469q0 148 59 271t158 203.5t226.5 124.5t266.5 44q154 0 277 -58t196.5 -172.5t73.5 -267.5q0 -146 -59 -268.5t-157.5 -203t-225 -125t-264.5 -44.5q-156 0 -280 57.5t-197.5 171.5t-73.5 267zM594 512q0 -69 32 -114.5t89 -45.5q72 0 123 66.5t51 154.5 q0 69 -32 114.5t-89 45.5q-72 0 -123 -66.5t-51 -154.5zM614 1208l258 318h388l-365 -318h-281z" />
<glyph unicode="&#xf4;" horiz-adv-x="1331" d="M113 469q0 148 59 271t158 203.5t226.5 124.5t266.5 44q154 0 277 -58t196.5 -172.5t73.5 -267.5q0 -146 -59 -268.5t-157.5 -203t-225 -125t-264.5 -44.5q-156 0 -280 57.5t-197.5 171.5t-73.5 267zM416 1208l276 318h377l186 -318h-282l-117 144l-160 -144h-280z M594 512q0 -69 32 -114.5t89 -45.5q72 0 123 66.5t51 154.5q0 69 -32 114.5t-89 45.5q-72 0 -123 -66.5t-51 -154.5z" />
<glyph unicode="&#xf5;" horiz-adv-x="1331" d="M113 469q0 148 59 271t158 203.5t226.5 124.5t266.5 44q154 0 277 -58t196.5 -172.5t73.5 -267.5q0 -146 -59 -268.5t-157.5 -203t-225 -125t-264.5 -44.5q-156 0 -280 57.5t-197.5 171.5t-73.5 267zM428 1204q7 50 31.5 104.5t61 102.5t88.5 78.5t108 30.5 q51 0 95.5 -16t69.5 -35.5t54.5 -35.5t54.5 -16q29 0 61.5 33t49.5 80h162q-12 -76 -54 -152t-108 -128t-135 -52q-50 0 -92 15.5t-66 34.5t-56 34.5t-63 15.5q-30 0 -59 -28t-45 -66h-158zM594 512q0 -69 32 -114.5t89 -45.5q72 0 123 66.5t51 154.5q0 69 -32 114.5 t-89 45.5q-72 0 -123 -66.5t-51 -154.5z" />
<glyph unicode="&#xf6;" horiz-adv-x="1331" d="M113 469q0 148 59 271t158 203.5t226.5 124.5t266.5 44q154 0 277 -58t196.5 -172.5t73.5 -267.5q0 -146 -59 -268.5t-157.5 -203t-225 -125t-264.5 -44.5q-156 0 -280 57.5t-197.5 171.5t-73.5 267zM434 1225l37 268h317l-36 -268h-318zM594 512q0 -69 32 -114.5 t89 -45.5q72 0 123 66.5t51 154.5q0 69 -32 114.5t-89 45.5q-72 0 -123 -66.5t-51 -154.5zM926 1225l37 268h315l-37 -268h-315z" />
<glyph unicode="&#xf7;" horiz-adv-x="1118" d="M109 362l45 318h1003l-45 -318h-1003zM367 -59l41 288h368l-41 -288h-368zM489 811l41 289h369l-41 -289h-369z" />
<glyph unicode="&#xf8;" horiz-adv-x="1331" d="M113 469q0 148 59 271t158 203.5t226.5 124.5t266.5 44q184 0 326 -82l113 119l57 -59l-105 -109q74 -62 115 -156.5t41 -210.5q0 -146 -59 -268.5t-157.5 -203t-225 -125t-264.5 -44.5q-190 0 -326 80l-115 -121l-57 60l102 108q-73 62 -114 158t-41 211zM592 504 q0 -34 6 -55l252 264q-35 35 -80 35q-76 0 -127 -75t-51 -169zM635 369q28 -31 78 -31q75 0 126.5 74.5t51.5 165.5q0 34 -6 55z" />
<glyph unicode="&#xf9;" horiz-adv-x="1390" d="M137 348l105 737h495l-88 -620q-6 -41 17 -70.5t61 -29.5q37 0 67.5 29.5t36.5 70.5l89 620h495l-96 -690q-9 -62 21.5 -80.5t93.5 -3.5l-43 -299q-115 -39 -287 -39q-113 0 -184.5 42t-98.5 114q-169 -156 -366 -156q-162 0 -251.5 106.5t-66.5 268.5zM444 1526h387 l170 -318h-282z" />
<glyph unicode="&#xfa;" horiz-adv-x="1390" d="M137 348l105 737h495l-88 -620q-6 -41 17 -70.5t61 -29.5q37 0 67.5 29.5t36.5 70.5l89 620h495l-96 -690q-9 -62 21.5 -80.5t93.5 -3.5l-43 -299q-115 -39 -287 -39q-113 0 -184.5 42t-98.5 114q-169 -156 -366 -156q-162 0 -251.5 106.5t-66.5 268.5zM664 1208l260 318 h387l-365 -318h-282z" />
<glyph unicode="&#xfb;" horiz-adv-x="1390" d="M137 348l105 737h495l-88 -620q-6 -41 17 -70.5t61 -29.5q37 0 67.5 29.5t36.5 70.5l89 620h495l-96 -690q-9 -62 21.5 -80.5t93.5 -3.5l-43 -299q-115 -39 -287 -39q-113 0 -184.5 42t-98.5 114q-169 -156 -366 -156q-162 0 -251.5 106.5t-66.5 268.5zM424 1208l276 318 h379l187 -318h-283l-117 144l-159 -144h-283z" />
<glyph unicode="&#xfc;" horiz-adv-x="1390" d="M137 348l105 737h495l-88 -620q-6 -41 17 -70.5t61 -29.5q37 0 67.5 29.5t36.5 70.5l89 620h495l-96 -690q-9 -62 21.5 -80.5t93.5 -3.5l-43 -299q-115 -39 -287 -39q-113 0 -184.5 42t-98.5 114q-169 -156 -366 -156q-162 0 -251.5 106.5t-66.5 268.5zM444 1225l37 268 h318l-37 -268h-318zM934 1225l37 268h317l-37 -268h-317z" />
<glyph unicode="&#xfd;" horiz-adv-x="1353" d="M111 -164q0 102 68.5 183.5t193.5 123.5q-129 10 -187 84.5t-41 200.5l93 657h495l-82 -587q-6 -43 17 -73t61 -30q37 0 68 30t37 73l81 587h498l-129 -913q-44 -315 -206.5 -455.5t-485.5 -140.5q-132 0 -228 20.5t-150 57t-78.5 81.5t-24.5 101zM580 -49q0 -78 71 -78 q94 0 111 121l20 145q-8 -1 -21.5 -4t-48.5 -16.5t-61.5 -32t-48.5 -54.5t-22 -81zM655 1208l260 318h388l-365 -318h-283z" />
<glyph unicode="&#xfe;" horiz-adv-x="1370" d="M41 -397l268 1910h498l-76 -538q140 137 313 137q166 0 264.5 -135t98.5 -340q0 -106 -22 -204t-66.5 -181.5t-106.5 -146t-146.5 -97.5t-182.5 -35q-94 0 -168 44t-121 122l-76 -536h-477zM627 516q0 -66 32.5 -110t88.5 -44q71 0 121.5 62.5t50.5 148.5q0 66 -32.5 110 t-88.5 44q-71 0 -121.5 -62.5t-50.5 -148.5z" />
<glyph unicode="&#xff;" horiz-adv-x="1353" d="M111 -164q0 102 68.5 183.5t193.5 123.5q-129 10 -187 84.5t-41 200.5l93 657h495l-82 -587q-6 -43 17 -73t61 -30q37 0 68 30t37 73l81 587h498l-129 -913q-44 -315 -206.5 -455.5t-485.5 -140.5q-132 0 -228 20.5t-150 57t-78.5 81.5t-24.5 101zM442 1225l37 268h318 l-37 -268h-318zM580 -49q0 -78 71 -78q94 0 111 121l20 145q-8 -1 -21.5 -4t-48.5 -16.5t-61.5 -32t-48.5 -54.5t-22 -81zM932 1225l37 268h317l-37 -268h-317z" />
<glyph unicode="&#x152;" horiz-adv-x="2097" d="M143 590q0 187 63.5 338t177 250t268.5 152.5t339 53.5h1219l-56 -389h-565l-16 -121h491l-51 -360h-491l-17 -127h566l-56 -387h-1218q-302 0 -478 154t-176 436zM655 621q0 -224 197 -224h166l84 590h-166q-281 0 -281 -366z" />
<glyph unicode="&#x153;" horiz-adv-x="1949" d="M115 465q0 119 36.5 223.5t100 181t148 132t183 83t201.5 27.5q249 0 363 -154q151 154 387 154q197 0 318.5 -99.5t121.5 -267.5q0 -82 -28.5 -146t-77 -103t-112 -66.5t-134.5 -36t-145 -11.5t-142 7q41 -76 199 -76q162 0 293 43l16 -313q-176 -70 -385 -70 q-304 0 -414 170v-4q-155 -166 -419 -166q-144 0 -258.5 57t-183 170.5t-68.5 264.5zM596 512q0 -68 33 -114t88 -46q74 0 125 66.5t51 154.5q0 68 -33 114t-90 46q-72 0 -123 -66.5t-51 -154.5zM1348 653q26 -6 67 -3.5t79 9t65.5 30.5t27.5 61q0 28 -19.5 43.5t-49.5 15.5 q-68 0 -110.5 -45t-59.5 -111z" />
<glyph unicode="&#x178;" horiz-adv-x="1390" d="M160 1384h514l143 -499l291 499h510l-598 -890l-70 -494h-508l70 494zM506 1524l37 268h315l-37 -268h-315zM995 1524l37 268h318l-37 -268h-318z" />
<glyph unicode="&#x2c6;" horiz-adv-x="1042" d="M266 1208l279 318h377l186 -318h-283l-116 144l-160 -144h-283z" />
<glyph unicode="&#x2dc;" horiz-adv-x="1032" d="M301 1204q5 40 21.5 83t43 84.5t59 75t75.5 53.5t88 20q51 0 95.5 -16t69.5 -35.5t54.5 -35.5t54.5 -16q29 0 61.5 33t49.5 80h162q-12 -76 -54 -152t-107.5 -128t-133.5 -52q-50 0 -92 15.5t-66 34.5t-56.5 34.5t-64.5 15.5q-31 0 -59 -28t-43 -66h-158z" />
<glyph unicode="&#x2000;" horiz-adv-x="959" />
<glyph unicode="&#x2001;" horiz-adv-x="1919" />
<glyph unicode="&#x2002;" horiz-adv-x="959" />
<glyph unicode="&#x2003;" horiz-adv-x="1919" />
<glyph unicode="&#x2004;" horiz-adv-x="639" />
<glyph unicode="&#x2005;" horiz-adv-x="479" />
<glyph unicode="&#x2006;" horiz-adv-x="319" />
<glyph unicode="&#x2007;" horiz-adv-x="319" />
<glyph unicode="&#x2008;" horiz-adv-x="239" />
<glyph unicode="&#x2009;" horiz-adv-x="383" />
<glyph unicode="&#x200a;" horiz-adv-x="106" />
<glyph unicode="&#x2010;" horiz-adv-x="829" d="M147 375l46 317h641l-46 -317h-641z" />
<glyph unicode="&#x2011;" horiz-adv-x="829" d="M147 375l46 317h641l-46 -317h-641z" />
<glyph unicode="&#x2012;" horiz-adv-x="829" d="M147 375l46 317h641l-46 -317h-641z" />
<glyph unicode="&#x2013;" horiz-adv-x="1292" d="M147 375l46 317h1103l-45 -317h-1104z" />
<glyph unicode="&#x2014;" horiz-adv-x="1845" d="M147 375l46 317h1656l-45 -317h-1657z" />
<glyph unicode="&#x2018;" horiz-adv-x="626" d="M174 670l53 372l267 342h227l-221 -305h188l-57 -409h-457z" />
<glyph unicode="&#x2019;" horiz-adv-x="606" d="M195 670l223 305h-189l58 409h456l-53 -372l-266 -342h-229z" />
<glyph unicode="&#x201a;" horiz-adv-x="641" d="M59 -305l224 305h-189l58 410h456l-53 -373l-268 -342h-228z" />
<glyph unicode="&#x201c;" horiz-adv-x="1216" d="M174 670l53 372l267 342h227l-221 -305h188l-57 -409h-457zM764 670l53 372l266 342h228l-221 -305h188l-57 -409h-457z" />
<glyph unicode="&#x201d;" horiz-adv-x="1196" d="M195 670l223 305h-189l58 409h456l-53 -372l-266 -342h-229zM784 670l224 305h-191l57 409h459l-53 -372l-268 -342h-228z" />
<glyph unicode="&#x201e;" horiz-adv-x="1230" d="M59 -305l224 305h-189l58 410h456l-53 -373l-268 -342h-228zM649 -305l223 305h-190l57 410h459l-53 -373l-268 -342h-228z" />
<glyph unicode="&#x2022;" horiz-adv-x="872" d="M184 608q0 162 119 281t275 119q126 0 209 -90t83 -222q0 -164 -118 -282.5t-275 -118.5q-127 0 -210 90t-83 223z" />
<glyph unicode="&#x2026;" horiz-adv-x="2068" d="M94 0l58 410h456l-57 -410h-457zM805 0l57 410h459l-57 -410h-459zM1518 0l57 410h457l-58 -410h-456z" />
<glyph unicode="&#x202f;" horiz-adv-x="383" />
<glyph unicode="&#x2039;" horiz-adv-x="903" d="M125 549l442 493h439l-478 -493l338 -494h-438z" />
<glyph unicode="&#x203a;" horiz-adv-x="903" d="M53 55l475 494l-335 493h438l303 -493l-442 -494h-439z" />
<glyph unicode="&#x205f;" horiz-adv-x="479" />
<glyph unicode="&#x20ac;" horiz-adv-x="1458" d="M125 483l22 164h1051l-22 -164h-330q70 -102 252 -102q140 0 260 51l45 -373q-258 -86 -490 -86q-268 0 -434.5 135t-191.5 375h-162zM162 750l24 163h164q94 234 297 366t469 132q231 0 465 -86l-149 -373q-109 52 -246 52q-169 0 -266 -91h317l-25 -163h-1050z" />
<glyph unicode="&#x2122;" horiz-adv-x="1327" d="M266 1202l27 182h483l-26 -182h-134l-51 -360h-217l51 360h-133zM758 842l78 542h211l59 -143l100 143h213l-78 -542h-200l35 239l-107 -123h-10l-66 123l-35 -239h-200z" />
<glyph unicode="&#xe000;" horiz-adv-x="1085" d="M0 0v1085h1085v-1085h-1085z" />
</font>
</defs>
</svg>
